<svg class="logo-svg" height="63" id="Layer_1" viewBox="0 0 351 63" width="351" xmlns="http://www.w3.org/2000/svg">
<defs>
<style>
      .cls1 {
        fill: #2f2924;
      }
               @media (max-width: 768px) {
    .logo-svg {
 margin-right: 16px;
        width: 226px; 
      height: 54px;
    }
  }
    </style>
</defs>
<path class="cls1" d="M89.67,17.68c2.37-.53,4.13-1.47,5.27-2.81,1.14-1.34,1.71-2.84,1.71-4.49,0-1.44-.34-2.75-1.01-3.96-.67-1.2-1.79-2.16-3.35-2.88-1.56-.72-3.68-1.08-6.37-1.08h-10.96v.05c.5.75.87,1.46,1.12,2.13.25.67.41,1.47.49,2.41.08.94.12,2.22.12,3.84v15.92c0,1.59-.04,2.86-.12,3.82-.08.95-.24,1.76-.49,2.43-.25.67-.62,1.38-1.12,2.13v.05h12.31c2.53,0,4.63-.44,6.32-1.31s2.95-2.03,3.79-3.46c.84-1.44,1.26-2.98,1.26-4.64,0-2-.71-3.76-2.13-5.29-1.42-1.53-3.71-2.48-6.86-2.86ZM80.92,4.01h4.4c2.43,0,4.25.62,5.46,1.87,1.2,1.25,1.8,2.78,1.8,4.59,0,1.94-.57,3.53-1.71,4.8-1.14,1.26-2.91,1.9-5.31,1.9h-4.63V4.01ZM93.63,29.83c-.55,1.17-1.39,2.11-2.53,2.81-1.14.7-2.6,1.05-4.38,1.05h-5.76v-14.98h5.53c2.68,0,4.68.68,5.99,2.04,1.31,1.36,1.97,3.08,1.97,5.17,0,1.44-.27,2.74-.82,3.91Z"></path>
<path class="cls1" d="M107.46,31.87c-.06-.69-.09-1.61-.09-2.76V12.34h-.05l-5.38,1.78v.05c.47.44.83,1.08,1.1,1.94.26.86.4,2.01.4,3.44v9.55c0,1.15-.03,2.08-.09,2.76-.06.69-.18,1.28-.35,1.78-.17.5-.46,1.01-.87,1.54v.05h6.55v-.05c-.37-.53-.66-1.04-.84-1.54-.19-.5-.31-1.09-.37-1.78Z"></path>
<path class="cls1" d="M105.45,8.32c.69,0,1.28-.25,1.78-.75.5-.5.75-1.09.75-1.78s-.25-1.28-.75-1.78c-.5-.5-1.09-.75-1.78-.75s-1.24.25-1.76.75c-.51.5-.77,1.09-.77,1.78s.26,1.28.77,1.78c.51.5,1.1.75,1.76.75Z"></path>
<path class="cls1" d="M127.36,31.42c-1.16.64-2.45.96-3.89.96-1.53,0-2.92-.36-4.17-1.08-1.25-.72-2.24-1.76-2.97-3.14-.73-1.37-1.1-3.04-1.1-5.01,0-1.53.26-3,.77-4.4.51-1.4,1.27-2.54,2.27-3.42,1-.87,2.25-1.31,3.75-1.31,1.16,0,2.07.29,2.74.87.67.58,1.17,1.29,1.5,2.13.33.84.54,1.69.63,2.53.81.06,1.48-.13,2.01-.58.53-.45.8-1.12.8-1.99,0-1.34-.64-2.44-1.92-3.3-1.28-.86-2.92-1.29-4.92-1.29-2.25,0-4.2.58-5.85,1.73-1.65,1.16-2.93,2.68-3.84,4.56-.91,1.89-1.36,3.96-1.36,6.2,0,2.12.41,4,1.22,5.64s1.97,2.93,3.49,3.86c1.51.94,3.32,1.41,5.41,1.41s4.03-.61,5.55-1.83c1.51-1.22,2.44-2.95,2.79-5.2-.78,1.12-1.75,2.01-2.9,2.65Z"></path>
<path class="cls1" d="M149.79,32.57c.69-.97,1.09-2.03,1.22-3.18-.72.81-1.62,1.52-2.71,2.13-1.09.61-2.53.91-4.31.91-1.59,0-2.99-.41-4.19-1.24-1.2-.83-2.12-1.94-2.76-3.32-.64-1.39-.96-2.96-.96-4.71,0-.69.05-1.34.14-1.97h13.86c.28,0,.57-.07.87-.21s.45-.65.45-1.52c0-.66-.13-1.39-.4-2.2-.27-.81-.7-1.59-1.31-2.34s-1.42-1.36-2.43-1.85c-1.01-.48-2.29-.73-3.82-.73-2.09,0-3.95.56-5.57,1.69-1.62,1.12-2.9,2.65-3.82,4.57-.92,1.92-1.38,4.03-1.38,6.34,0,1.9.39,3.68,1.17,5.34.78,1.65,1.92,2.99,3.42,4,1.5,1.01,3.32,1.52,5.48,1.52,1.65,0,3.07-.3,4.26-.89,1.19-.59,2.12-1.37,2.81-2.34ZM138.72,15.65c1.11-1.11,2.43-1.66,3.96-1.66,1.19,0,2.15.28,2.9.84.75.56,1.29,1.24,1.64,2.04.34.8.51,1.54.51,2.22,0,.47-.1.75-.3.84-.2.09-.51.14-.91.14h-10.11c.44-1.84,1.21-3.32,2.32-4.42Z"></path>
<path class="cls1" d="M168.14,28.54c0-1.09-.2-2.01-.61-2.76-.41-.75-1.04-1.44-1.9-2.08-.86-.64-1.96-1.33-3.3-2.08-1.44-.78-2.49-1.45-3.16-2.01s-1.01-1.34-1.01-2.34c0-1.09.33-1.92.98-2.48.66-.56,1.51-.84,2.58-.84s2.09.29,3,.87c.91.58,1.76,1.37,2.58,2.36l.14-.05-.05-3.89c-.62-.19-1.33-.38-2.11-.58-.78-.2-1.65-.3-2.62-.3-2.47,0-4.4.59-5.81,1.76-1.4,1.17-2.11,2.74-2.11,4.71,0,1.09.22,2.01.66,2.74.44.73,1.06,1.38,1.87,1.94.81.56,1.78,1.17,2.9,1.83,1.03.59,1.87,1.11,2.5,1.54.64.44,1.12.91,1.43,1.4.31.5.47,1.15.47,1.97,0,1.16-.33,2.08-.98,2.79s-1.62,1.05-2.9,1.05-2.43-.34-3.56-1.03-2.15-1.64-3.09-2.86h-.14l.23,3.98c.56.37,1.34.73,2.34,1.08,1,.34,2.2.52,3.6.52,2.4,0,4.35-.65,5.83-1.94,1.48-1.29,2.22-3.05,2.22-5.27Z"></path>
<path class="cls1" d="M183.5,32.38c-.41.22-.89.41-1.45.56s-1.19.23-1.87.23c-1,0-1.75-.14-2.25-.42-.5-.28-.83-.63-.98-1.05s-.23-.83-.23-1.24v-15.83h6.79v-1.73h-6.79v-4.59h-.09l-6.46,5.95v.37h2.58v16.29c0,1.59.49,2.8,1.47,3.63.98.83,2.24,1.24,3.77,1.24,1.4,0,2.58-.3,3.54-.91.95-.61,1.62-1.44,1.99-2.5Z"></path>
<path class="cls1" d="M201.88,14.92c-.61-.75-1.42-1.36-2.43-1.85-1.02-.48-2.29-.73-3.82-.73-2.09,0-3.95.56-5.57,1.69-1.62,1.12-2.89,2.65-3.82,4.57-.92,1.92-1.38,4.03-1.38,6.34,0,1.9.39,3.68,1.17,5.34.78,1.65,1.92,2.99,3.42,4,1.5,1.01,3.32,1.52,5.48,1.52,1.65,0,3.07-.3,4.26-.89,1.19-.59,2.12-1.37,2.81-2.34.69-.97,1.09-2.03,1.22-3.18-.72.81-1.62,1.52-2.71,2.13-1.09.61-2.53.91-4.31.91-1.59,0-2.99-.41-4.19-1.24s-2.12-1.94-2.76-3.32c-.64-1.39-.96-2.96-.96-4.71,0-.69.05-1.34.14-1.97h13.86c.28,0,.57-.07.87-.21s.45-.65.45-1.52c0-.66-.13-1.39-.4-2.2-.27-.81-.7-1.59-1.31-2.34ZM199.63,19.93c-.2.09-.51.14-.91.14h-10.11c.44-1.84,1.21-3.32,2.32-4.42,1.11-1.11,2.43-1.66,3.96-1.66,1.19,0,2.15.28,2.9.84.75.56,1.29,1.24,1.64,2.04.34.8.51,1.54.51,2.22,0,.47-.1.75-.3.84Z"></path>
<path class="cls1" d="M218.01,12.53c-1,0-2.01.41-3.04,1.24-1.03.83-2.03,2.16-3,4v-5.43h-.05l-5.38,1.78v.05c.47.44.83,1.08,1.1,1.94.26.86.4,2.01.4,3.44v9.55c0,1.15-.03,2.08-.09,2.76-.06.69-.18,1.28-.35,1.78-.17.5-.46,1.01-.87,1.54v.05h6.55v-.05c-.37-.53-.66-1.04-.84-1.54-.19-.5-.31-1.09-.37-1.78-.06-.69-.09-1.61-.09-2.76v-10.25c.62-.94,1.32-1.7,2.08-2.29.76-.59,1.62-.89,2.55-.89.59,0,1.11.13,1.55.38.44.25.78.55,1.03.89.94-.44,1.41-1.19,1.41-2.25,0-.59-.23-1.1-.68-1.52-.45-.42-1.08-.63-1.9-.63Z"></path>
<path class="cls1" d="M254.81,9.35c.47-1.31.86-2.35,1.17-3.11.31-.76.62-1.42.91-1.97.3-.55.68-1.13,1.15-1.76v-.05h-5.67v.05c.62.97,1.03,1.86,1.22,2.67.19.81.16,1.77-.09,2.88-.25,1.11-.72,2.6-1.41,4.47l-6.37,17.6-6.7-17.65c-.72-1.87-1.22-3.36-1.5-4.47-.28-1.11-.34-2.06-.16-2.86.17-.8.57-1.68,1.19-2.65v-.05h-8.66v.05c.47.62.86,1.21,1.17,1.76.31.55.63,1.2.96,1.97.33.77.73,1.79,1.19,3.07l10.16,26.08h1.78l9.64-26.03Z"></path>
<path class="cls1" d="M261.74,31.87c-.06.69-.18,1.28-.35,1.78-.17.5-.46,1.01-.87,1.54v.05h6.55v-.05c-.37-.53-.66-1.04-.84-1.54-.19-.5-.31-1.09-.37-1.78-.06-.69-.09-1.61-.09-2.76V12.34h-.05l-5.38,1.78v.05c.47.44.83,1.08,1.1,1.94.26.86.4,2.01.4,3.44v9.55c0,1.15-.03,2.08-.09,2.76Z"></path>
<path class="cls1" d="M263.84,8.32c.69,0,1.28-.25,1.78-.75.5-.5.75-1.09.75-1.78s-.25-1.28-.75-1.78c-.5-.5-1.09-.75-1.78-.75s-1.24.25-1.76.75c-.51.5-.77,1.09-.77,1.78s.26,1.28.77,1.78c.52.5,1.1.75,1.76.75Z"></path>
<path class="cls1" d="M271.9,7.71v21.4c0,1.15-.03,2.08-.09,2.76-.06.69-.19,1.28-.38,1.78-.19.5-.47,1.01-.84,1.54v.05h6.51v-.05c-.38-.53-.66-1.04-.84-1.54-.19-.5-.31-1.09-.38-1.78-.06-.69-.09-1.61-.09-2.76V.45h-.05l-5.34,1.78v.09c.47.44.83,1.08,1.1,1.92.26.84.4,2,.4,3.46Z"></path>
<path class="cls1" d="M285.9,31.87c-.06-.69-.09-1.61-.09-2.76V.45h-.05l-5.34,1.78v.09c.47.44.83,1.08,1.1,1.92.26.84.4,2,.4,3.46v21.4c0,1.15-.03,2.08-.09,2.76-.06.69-.19,1.28-.38,1.78-.19.5-.47,1.01-.84,1.54v.05h6.51v-.05c-.38-.53-.66-1.04-.84-1.54-.19-.5-.31-1.09-.38-1.78Z"></path>
<path class="cls1" d="M308.14,32.59c-.25.08-.53.12-.84.12-.69,0-1.15-.2-1.38-.61-.23-.41-.35-.89-.35-1.45v-10.11c0-2.65-.65-4.67-1.94-6.06-1.3-1.39-3.1-2.08-5.41-2.08-1.65,0-3.01.32-4.07.96-1.06.64-1.85,1.4-2.36,2.29-.51.89-.79,1.74-.82,2.55.53-.62,1.29-1.28,2.29-1.97,1-.69,2.26-1.03,3.79-1.03s2.63.42,3.49,1.26c.86.84,1.29,2.23,1.29,4.17v2.48c-1.53.31-3.01.66-4.45,1.03s-2.71.84-3.84,1.4-2.01,1.27-2.67,2.13c-.66.86-.98,1.91-.98,3.16,0,1.5.46,2.69,1.38,3.58.92.89,2.13,1.33,3.63,1.33s2.86-.41,3.98-1.24c1.12-.83,2.11-1.8,2.95-2.93v.05c0,1.34.3,2.36.91,3.07s1.44,1.05,2.5,1.05c.97,0,1.76-.3,2.39-.89.62-.59,1.03-1.44,1.22-2.53-.22.09-.45.18-.7.26ZM301.81,30.75c-.75.59-1.52,1.08-2.32,1.47-.8.39-1.65.58-2.55.58-1,0-1.81-.26-2.43-.8-.62-.53-.94-1.31-.94-2.34,0-1.56.76-2.72,2.27-3.49,1.51-.76,3.5-1.46,5.97-2.08v6.65Z"></path>
<path class="cls1" d="M330.52,14.26c.09-.28.14-.76.14-1.43s-.06-1.21-.19-1.62c-.59,0-1.44.19-2.53.56-1.09.37-2.12.98-3.09,1.83-.66-.41-1.38-.72-2.18-.94-.8-.22-1.66-.33-2.6-.33-1.78,0-3.32.38-4.63,1.12-1.31.75-2.33,1.74-3.07,2.97-.73,1.23-1.1,2.6-1.1,4.1,0,1.37.31,2.62.94,3.75.62,1.12,1.51,2.01,2.67,2.67-.84.47-1.66,1.08-2.46,1.83-.8.75-1.19,1.69-1.19,2.81,0,.81.25,1.54.75,2.2.5.66,1.26,1.16,2.29,1.5-.72.22-1.43.56-2.13,1.03-.7.47-1.28,1.07-1.73,1.8-.45.73-.68,1.58-.68,2.55,0,1.59.76,2.89,2.27,3.88,1.51,1,3.64,1.5,6.39,1.5,2.47,0,4.61-.38,6.44-1.15,1.83-.77,3.25-1.8,4.28-3.11,1.03-1.31,1.54-2.76,1.54-4.36,0-1.9-.62-3.27-1.87-4.1-1.25-.83-2.81-1.24-4.68-1.24h-6.18c-2.68,0-4.03-.78-4.03-2.34,0-1.03.56-1.86,1.69-2.48,1.19.56,2.53.84,4.03.84,1.78,0,3.32-.36,4.63-1.08,1.31-.72,2.33-1.69,3.04-2.9.72-1.22,1.08-2.58,1.08-4.07,0-1.15-.22-2.23-.66-3.23-.44-1-1.09-1.86-1.97-2.58.72-.03,1.57-.05,2.55-.05s1.72.02,2.22.05ZM315.02,35.47c.66.16,1.37.23,2.15.23h6.23c.56,0,1.17.07,1.83.21.66.14,1.22.45,1.69.94.47.48.7,1.24.7,2.27,0,1.53-.68,2.86-2.04,4-1.36,1.14-3.25,1.71-5.69,1.71s-4.11-.5-5.31-1.5c-1.2-1-1.8-2.26-1.8-3.79,0-.91.23-1.72.68-2.43.45-.72.98-1.26,1.57-1.64ZM323.42,24.96c-.8,1.2-1.96,1.8-3.49,1.8-1.06,0-1.96-.33-2.69-.98-.73-.66-1.28-1.51-1.64-2.55-.36-1.05-.54-2.18-.54-3.39,0-1.06.16-2.06.47-3,.31-.94.8-1.69,1.47-2.27.67-.58,1.55-.87,2.65-.87s1.96.34,2.69,1.01c.73.67,1.29,1.54,1.69,2.6.39,1.06.58,2.19.58,3.37,0,1.65-.4,3.08-1.19,4.28Z"></path>
<path class="cls1" d="M349.57,21.19c.28,0,.57-.07.87-.21s.45-.65.45-1.52c0-.66-.13-1.39-.4-2.2-.27-.81-.7-1.59-1.31-2.34-.61-.75-1.42-1.36-2.43-1.85-1.02-.48-2.29-.73-3.82-.73-2.09,0-3.95.56-5.57,1.69-1.62,1.12-2.9,2.65-3.82,4.57-.92,1.92-1.38,4.03-1.38,6.34,0,1.9.39,3.68,1.17,5.34.78,1.65,1.92,2.99,3.42,4,1.5,1.01,3.32,1.52,5.48,1.52,1.65,0,3.07-.3,4.26-.89,1.19-.59,2.12-1.37,2.81-2.34.69-.97,1.09-2.03,1.22-3.18-.72.81-1.62,1.52-2.72,2.13-1.09.61-2.53.91-4.31.91-1.59,0-2.99-.41-4.19-1.24s-2.12-1.94-2.76-3.32c-.64-1.39-.96-2.96-.96-4.71,0-.69.05-1.34.14-1.97h13.86ZM338.22,15.65c1.11-1.11,2.43-1.66,3.96-1.66,1.19,0,2.15.28,2.9.84.75.56,1.29,1.24,1.64,2.04.34.8.51,1.54.51,2.22,0,.47-.1.75-.3.84-.2.09-.51.14-.91.14h-10.11c.44-1.84,1.21-3.32,2.32-4.42Z"></path>
<polygon class="cls1" points="110.72 55.76 112.85 55.76 112.85 62.43 114.4 62.43 114.4 55.76 116.53 55.76 116.53 54.38 110.72 54.38 110.72 55.76"></polygon>
<polygon class="cls1" points="125.79 57.43 121.76 57.43 121.76 54.38 120.21 54.38 120.21 62.43 121.76 62.43 121.76 58.81 125.79 58.81 125.79 62.43 127.34 62.43 127.34 54.38 125.79 54.38 125.79 57.43"></polygon>
<polygon class="cls1" points="133.2 58.81 135.68 58.81 135.68 57.43 133.2 57.43 133.2 55.76 136.48 55.76 136.48 54.38 131.65 54.38 131.65 62.43 136.6 62.43 136.6 61.05 133.2 61.05 133.2 58.81"></polygon>
<path class="cls1" d="M150.8,57.91c.26-.28.52-.82.52-1.35,0-.66-.3-1.23-.75-1.62-.39-.35-.9-.56-1.81-.56h-2.74v8.05h3.14c1.04,0,1.66-.28,2.11-.72.45-.44.74-1.06.74-1.74,0-.9-.5-1.7-1.21-2.06ZM147.58,55.76h1.09c.48,0,.7.12.86.29.14.15.23.36.23.58s-.09.43-.23.58c-.16.17-.38.29-.86.29h-1.09v-1.73ZM150.17,60.7c-.2.22-.5.36-1.04.36h-1.55v-2.19h1.55c.54,0,.84.14,1.04.36.18.2.29.45.29.74s-.1.54-.29.74Z"></path>
<rect class="cls1" height="8.05" width="1.55" x="155.68" y="54.38"></rect>
<path class="cls1" d="M165.28,61.17c-1.55,0-2.75-1.2-2.75-2.76s1.15-2.76,2.68-2.76c.79,0,1.47.35,1.96.83l1-1.06c-.72-.7-1.75-1.15-2.95-1.15-2.51,0-4.25,1.83-4.25,4.14s1.76,4.14,4.27,4.14c1.47,0,2.67-.63,3.38-1.54l-1.07-.95c-.47.61-1.23,1.12-2.28,1.12Z"></path>
<polygon class="cls1" points="173.8 58.81 176.27 58.81 176.27 57.43 173.8 57.43 173.8 55.76 177.08 55.76 177.08 54.38 172.25 54.38 172.25 62.43 177.19 62.43 177.19 61.05 173.8 61.05 173.8 58.81"></polygon>
<path class="cls1" d="M182.33,56.52c0-.62.66-.88,1.24-.88.53,0,1.07.23,1.39.53l.81-1.15c-.76-.56-1.52-.76-2.33-.76-1.33,0-2.66.83-2.66,2.27,0,.91.51,1.46,1.14,1.83,1.08.63,2.58.76,2.58,1.79,0,.59-.48,1.01-1.17,1.01-.74,0-1.44-.38-1.9-.89l-1.01,1.06c.83.76,1.83,1.21,2.91,1.21,1.45,0,2.73-.99,2.73-2.42,0-2.71-3.72-2.31-3.72-3.61Z"></path>
<polygon class="cls1" points="188.92 55.76 191.05 55.76 191.05 62.43 192.6 62.43 192.6 55.76 194.73 55.76 194.73 54.38 188.92 54.38 188.92 55.76"></polygon>
<polygon class="cls1" points="199.96 58.81 202.43 58.81 202.43 57.43 199.96 57.43 199.96 55.76 203.24 55.76 203.24 54.38 198.41 54.38 198.41 62.43 203.35 62.43 203.35 61.05 199.96 61.05 199.96 58.81"></polygon>
<path class="cls1" d="M211.9,58.27c.44-.41.71-1,.71-1.64s-.28-1.23-.71-1.65c-.4-.37-.93-.6-1.76-.6h-2.93v8.05h1.55v-3.57h.56l2.87,3.57h1.92l-3.01-3.69c.32-.1.59-.26.81-.47ZM210.83,57.24c-.14.15-.33.24-.78.24h-1.29v-1.73h1.29c.45,0,.64.1.78.25.14.15.23.38.23.62,0,.23-.09.46-.23.61Z"></path>
<path class="cls1" d="M226.69,61.17c-1.55,0-2.75-1.2-2.75-2.76s1.15-2.76,2.68-2.76c.79,0,1.47.35,1.96.83l1-1.06c-.72-.7-1.75-1.15-2.95-1.15-2.51,0-4.25,1.83-4.25,4.14s1.76,4.14,4.27,4.14c1.47,0,2.67-.63,3.38-1.54l-1.07-.95c-.47.61-1.23,1.12-2.28,1.12Z"></path>
<path class="cls1" d="M237.22,54.26c-2.49,0-4.2,1.85-4.2,4.14s1.71,4.14,4.2,4.14,4.2-1.85,4.2-4.14-1.71-4.14-4.2-4.14ZM237.22,61.17c-1.52,0-2.65-1.24-2.65-2.76s1.13-2.76,2.65-2.76,2.65,1.24,2.65,2.76-1.13,2.76-2.65,2.76Z"></path>
<polygon class="cls1" points="246.71 54.38 245.15 54.38 245.15 62.43 250.1 62.43 250.1 61.05 246.71 61.05 246.71 54.38"></polygon>
<polygon class="cls1" points="255.33 54.38 253.78 54.38 253.78 62.43 258.73 62.43 258.73 61.05 255.33 61.05 255.33 54.38"></polygon>
<polygon class="cls1" points="263.96 58.81 266.43 58.81 266.43 57.43 263.96 57.43 263.96 55.76 267.24 55.76 267.24 54.38 262.4 54.38 262.4 62.43 267.35 62.43 267.35 61.05 263.96 61.05 263.96 58.81"></polygon>
<path class="cls1" d="M274.76,61.17c-1.55,0-2.75-1.2-2.75-2.76s1.15-2.76,2.68-2.76c.79,0,1.47.35,1.96.83l1-1.06c-.73-.7-1.75-1.15-2.95-1.15-2.51,0-4.25,1.83-4.25,4.14s1.76,4.14,4.27,4.14c1.47,0,2.67-.63,3.38-1.54l-1.07-.95c-.47.61-1.23,1.12-2.28,1.12Z"></path>
<polygon class="cls1" points="281.09 55.76 283.22 55.76 283.22 62.43 284.77 62.43 284.77 55.76 286.9 55.76 286.9 54.38 281.09 54.38 281.09 55.76"></polygon>
<rect class="cls1" height="8.05" width="1.55" x="290.58" y="54.38"></rect>
<path class="cls1" d="M300.07,54.26c-2.49,0-4.2,1.85-4.2,4.14s1.71,4.14,4.2,4.14,4.2-1.85,4.2-4.14-1.71-4.14-4.2-4.14ZM300.07,61.17c-1.52,0-2.65-1.24-2.65-2.76s1.13-2.76,2.65-2.76,2.65,1.24,2.65,2.76-1.13,2.76-2.65,2.76Z"></path>
<polygon class="cls1" points="313.58 59.63 309.09 54.38 308 54.38 308 62.43 309.55 62.43 309.55 57.19 314.04 62.43 315.13 62.43 315.13 54.38 313.58 54.38 313.58 59.63"></polygon>
<path class="cls1" d="M30.33,1.02C13.52,1.02-.15,14.69-.15,31.49s13.67,30.47,30.47,30.47,30.47-13.67,30.47-30.47S47.13,1.02,30.33,1.02ZM30.33,60.77C14.18,60.77,1.05,47.63,1.05,31.49S14.18,2.21,30.33,2.21s29.28,13.13,29.28,29.28-13.13,29.28-29.28,29.28Z"></path>
<path class="cls1" d="M14.42,35.52c.57.41,1.43.98,2.64,1.45,1.21.46.67-1.28.88-2.04.8,1.69,2.13,3.09,3.71,4.35,1.47,1.18,3.2,1.06,4.38-.46,1.02-1.32,2.54-2.39,4.15-2.65,1.03-.15,1.01-1.18.56-1.5-1.03-.74-1.7-1.64-2-2.54,1.85,1.68,4.05,2.79,6.57,3.49,1.79.49,3.15-.4,3.54-1.82.54-1.98,1.34-3.75,2.12-4.75.38-.48.33-.94.1-1.36-.24-.42-1.24-.96-1.7-1.22-.46-.26-.05-.83.34-1.03.82-.42,1.33-1.18,1.47-2.05.21-1.35-.47-2.92-1.48-4.14-1-1.22-2.87-.5-5.05-.42.69-.37,1.27-.65,2.02-1.09,1.31-.75-.65-3.09-3.43-3.53-1.76-.28-3.2-.99-4.52-2.11-1.03-.87-3.28-.76-3.13,1.33.81.37,1.52.69,2.3,1.11-2.16-.4-4.34-.57-6.3-.6-1.75-.02-2.76.79-3.59,1.85-.84,1.06-1.56,2.34-2.56,3.47.72-.25,1.2-.52,2.06-1.38-.91,2.1-2.01,3.45-3.16,4.26-.73.53-.82,1.4-.33,2.65,1.54,3.91,3.61,7,9.07,10.57-3.3-.96-5.52-2.3-7.71-4.53.08.8-.45,1.69-1.24,2.45-.79.78-.56,1.62.29,2.23ZM28.09,30.36c2.41-.2,4.94-1.34,6.24-2.85-.4,3.4-3.76,4.41-6.24,2.85ZM32.72,27.17c1.32-4.78.99-7.06-2.1-10.2,4.31,1.61,6.61,5.23,2.1,10.2ZM31.58,21.5c.48,4.24-3.32,6.9-7.72,5.66.79-.27,1.5-.54,2.15-.81-1.83-.86-3.27-2.09-3.97-3.73,1.74-.87,3.93-1.21,6.41-.62-1.92.13-3.58.9-4.46,1.65,1.06.78,1.97,1.31,4.13,1.69,1.08-.62,1.89-1.26,2.44-1.98-.64-1.91-2.4-3.52-4.85-3.45,2.72-.5,4.56.08,5.87,1.59ZM27.18,17.63c-3.37,1.05-6.13,2.47-8.76,4.95,1.24-3.98,4.75-5.87,8.76-4.95ZM19.23,24.83c2.6,2.72,4.34,3.87,7.19,4.65l.05,2.28c-3.47-1.18-6.03-3.17-7.24-6.93Z"></path>
<path class="cls1" d="M44.77,30.51c-2.25.43-3.2,1.95-3.97,4.04,3.98.1,6.65-1.82,7.67-5.24-1.89.88-4.9-1.48-6.76,2.01.88-1.03,1.96-1.21,3.06-.81Z"></path>
<path class="cls1" d="M21.92,42.06c-2.06-2.98-5.58-1.24-7.64-1.98.9,2.86,4.45,4.42,7.78,3.89-.41-1.72-1.23-2.47-3.48-2.89,1.6-.16,2.41.17,3.34.98Z"></path>
<path class="cls1" d="M32.34,35.86c-.3,12.32-18.86,15.24-24.22,1.09,5.12,19.78,26.84,12.55,24.22-1.09Z"></path>
<path class="cls1" d="M35,46.79c1.59.05,2.86.5,3.77,1.89-2.58-1.26-4.1-1.14-5.64-.22,1.89,2.65,5.71,3.46,8.52,1.37-1.99-.63-2.56-4.49-6.65-3.04Z"></path>
<path class="cls1" d="M35.5,40.09c3.5-2.63,7.15-3.06,11.2-1.54-5.91-.48-14.6,2.12-15.9,10.37,1.05-2.31,2.51-3.99,4.23-5.25,4.5,2.02,8.2,1.79,12.33-.8,2.1-1.32,3.07-2.21,5.18-2.2-6.05-5.99-13.38-5.98-17.03-.58Z"></path>
</svg>
