<svg width="213" height="56" viewBox="0 0 213 56" fill="none" xmlns="http://www.w3.org/2000/svg">
  <title>SkuGEO</title>
  <defs>
    <filter id="lensGlow" x="-20%" y="-20%" width="140%" height="140%">
      <feDropShadow dx="1" dy="2" stdDeviation="2.5" flood-color="#c8a97e" flood-opacity="0.25"/>
    </filter>
  </defs>
  <g transform="translate(10, 8)">
    <g filter="url(#lensGlow)">
      <circle cx="22" cy="22" r="16" stroke="#c8a97e" stroke-width="3.5" fill="none"/>
      <line x1="33" y1="33" x2="44" y2="44" stroke="#c8a97e" stroke-width="4.5" stroke-linecap="round"/>
    </g>
    <path d="M 13 25 Q 22 34 31 25" stroke="#c8a97e" stroke-width="2.5" stroke-linecap="round" fill="none"/>
    <path d="M 17 8 Q 17 15 10 15 Q 17 15 17 22 Q 17 15 24 15 Q 17 15 17 8 Z" fill="#bae6fd"/>
  </g>
  <path d="M88.74 33.63L88.74 33.63Q88.74 36.77 86.34 38.54Q83.94 40.32 80.38 40.32L80.38 40.32Q75.30 40.32 72.10 36.70L72.10 36.70L71.84 40L70.11 40L70.11 32.45L71.90 32.45Q72.61 35.26 74.83 37.01Q77.06 38.75 80 38.75L80 38.75Q82.11 38.75 83.38 37.84Q84.64 36.93 84.64 35.17L84.64 35.17Q84.64 33.38 83.17 32.35Q81.70 31.33 78.27 30.43L78.27 30.43Q74.40 29.38 72.38 27.87Q70.37 26.37 70.37 23.62L70.37 23.62Q70.37 20.74 72.58 19.01Q74.78 17.28 78.21 17.28L78.21 17.28Q82.78 17.28 85.50 20.64L85.50 20.64L85.79 17.60L87.52 17.60L87.52 24.83L85.66 24.83Q85.02 21.98 83.07 20.42Q81.12 18.85 78.43 18.85L78.43 18.85Q76.54 18.85 75.39 19.71Q74.24 20.58 74.24 22.27L74.24 22.27Q74.24 23.84 75.57 24.75Q76.90 25.66 79.97 26.50L79.97 26.50Q84.42 27.68 86.58 29.20Q88.74 30.72 88.74 33.63ZM98.75 38.59L100.06 38.59L100.06 40L91.23 40L91.23 38.59L92.83 38.59Q93.70 38.59 93.70 37.57L93.70 37.57L93.70 19.39Q93.70 18.37 92.83 18.37L92.83 18.37L91.23 18.37L91.23 16.96L97.89 16.96L97.89 31.74L103.94 26.53Q104.54 26.02 104.40 25.63Q104.26 25.25 103.55 25.25L103.55 25.25L102.46 25.25L102.46 23.84L110.46 23.84L110.46 25.25L109.79 25.25Q108.80 25.25 107.84 25.66Q106.88 26.08 105.50 27.20L105.50 27.20L103.62 28.96L108.61 37.15Q109.12 37.95 109.65 38.27Q110.18 38.59 111.01 38.59L111.01 38.59L111.68 38.59L111.68 40L102.82 40L102.82 38.59L103.58 38.59Q104.77 38.59 104.06 37.34L104.06 37.34L100.51 31.33L97.89 33.60L97.89 37.57Q97.89 38.59 98.75 38.59L98.75 38.59ZM123.04 23.84L129.89 23.84L129.89 37.57Q129.89 38.59 130.75 38.59L130.75 38.59L132.38 38.59L132.38 40L125.82 40L125.82 37.09L125.66 37.09Q123.01 40.32 119.65 40.32L119.65 40.32Q117.38 40.32 116.14 39.04Q114.91 37.76 114.91 35.17L114.91 35.17L114.91 26.27Q114.91 25.25 114.05 25.25L114.05 25.25L112.45 25.25L112.45 23.84L119.10 23.84L119.10 35.04Q119.10 38.14 121.57 38.14L121.57 38.14Q124.00 38.14 125.70 35.26L125.70 35.26L125.70 26.30Q125.70 25.25 124.86 25.25L124.86 25.25L123.04 25.25L123.04 23.84Z" fill="#f0ece6"/>
  <path d="M146.40 40.32L146.40 40.32Q141.82 40.32 139.36 37.39Q136.90 34.46 136.90 29.28L136.90 29.28Q136.90 24.22 139.68 21.23Q142.46 18.24 147.33 18.24L147.33 18.24Q152.03 18.24 154.58 20.42Q157.12 22.59 157.12 26.46L157.12 26.46L157.12 26.62L152.03 26.62L152.03 26.50Q152.03 24.48 150.94 23.68Q149.86 22.88 147.23 22.88L147.23 22.88Q144.38 22.88 143.20 24.24Q142.02 25.60 142.02 29.28L142.02 29.28Q142.02 33.02 143.28 34.38Q144.54 35.74 147.68 35.74L147.68 35.74Q150.34 35.74 151.46 35.10Q152.58 34.46 152.58 32.61L152.58 32.61L146.72 32.61L146.72 28.61L157.18 28.61L157.18 40L152.74 40L152.74 36.74L152.54 36.74Q151.97 38.21 150.48 39.26Q148.99 40.32 146.40 40.32ZM176.38 35.68L176.38 40L160.03 40L160.03 18.56L176.38 18.56L176.38 22.88L164.83 22.88L164.83 27.07L175.90 27.07L175.90 31.36L164.83 31.36L164.83 35.68L176.38 35.68ZM196.10 37.33Q193.34 40.32 188.58 40.32Q183.81 40.32 181.04 37.33Q178.27 34.34 178.27 29.28Q178.27 24.22 181.04 21.23Q183.81 18.24 188.58 18.24Q193.34 18.24 196.10 21.23Q198.85 24.22 198.85 29.28Q198.85 34.34 196.10 37.33ZM184.56 34.32Q185.73 35.68 188.58 35.68Q191.42 35.68 192.58 34.32Q193.73 32.96 193.73 29.28Q193.73 25.60 192.58 24.24Q191.42 22.88 188.58 22.88Q185.73 22.88 184.56 24.24Q183.39 25.60 183.39 29.28Q183.39 32.96 184.56 34.32Z" fill="#c8a97e"/>
  <line x1="68" y1="48" x2="199" y2="48" stroke="#c8a97e" stroke-width="0.8" stroke-linecap="round" opacity="0.35"/>
</svg>