<svg width="152" height="56" viewBox="0 0 152 56" fill="none" xmlns="http://www.w3.org/2000/svg">
  <title>拾鸽</title>
  <defs>
    <filter id="lensGlow" x="-20%" y="-20%" width="140%" height="140%">
      <feDropShadow dx="1" dy="2" stdDeviation="2.5" flood-color="#c8a97e" flood-opacity="0.12"/>
    </filter>
  </defs>
  <g transform="translate(10, 8)">
    <g filter="url(#lensGlow)">
      <circle cx="22" cy="22" r="16" stroke="#c8a97e" stroke-width="3.5" fill="none"/>
      <line x1="33" y1="33" x2="44" y2="44" stroke="#c8a97e" stroke-width="4.5" stroke-linecap="round"/>
    </g>
    <path d="M 13 25 Q 22 34 31 25" stroke="#c8a97e" stroke-width="2.5" stroke-linecap="round" fill="none"/>
    <path d="M 17 8 Q 17 15 10 15 Q 17 15 17 22 Q 17 15 24 15 Q 17 15 17 8 Z" fill="#bae6fd"/>
  </g>
  <path d="M73.92 32.50L73.53 31.60Q74.76 31.24 76.32 30.76Q77.88 30.28 79.64 29.73Q81.39 29.17 83.16 28.60L83.16 28.60L83.31 29.41Q80.82 30.25 78.34 31.06Q75.87 31.87 73.92 32.50L73.92 32.50ZM73.89 22.39L73.89 21.49L82.77 21.49L82.77 22.39L73.89 22.39ZM78.21 40.48L78.21 15.10L79.08 15.10L79.08 40.45Q79.08 41.02 78.90 41.30Q78.72 41.59 78.30 41.71L78.30 41.71Q77.91 41.83 77.13 41.86Q76.35 41.89 74.97 41.89L74.97 41.89Q74.94 41.71 74.83 41.45Q74.73 41.20 74.61 40.99L74.61 40.99Q75.72 41.02 76.58 41.02Q77.43 41.02 77.67 41.02L77.67 41.02Q78.21 40.99 78.21 40.48L78.21 40.48ZM86.43 25.90L86.43 25.03L96.27 25.03L96.27 25.90L86.43 25.90ZM85.77 40.45L85.77 39.55L97.05 39.55L97.05 40.45L85.77 40.45ZM85.23 42.22L85.23 30.28L97.44 30.28L97.44 42.10L96.57 42.10L96.57 31.18L86.13 31.18L86.13 42.22L85.23 42.22ZM90.99 16.18L91.80 15.85Q92.73 17.80 94.14 19.77Q95.55 21.73 97.19 23.32Q98.82 24.91 100.41 25.84L100.41 25.84Q100.29 25.93 100.16 26.07Q100.02 26.20 99.88 26.35Q99.75 26.50 99.66 26.62L99.66 26.62Q98.10 25.57 96.47 23.89Q94.83 22.21 93.39 20.20Q91.95 18.19 90.99 16.18L90.99 16.18ZM91.29 15.25L91.29 15.25L92.25 15.49Q90.96 18.76 88.62 21.76Q86.28 24.76 83.19 26.98L83.19 26.98Q83.10 26.89 82.97 26.79Q82.83 26.68 82.69 26.58Q82.56 26.47 82.44 26.41L82.44 26.41Q84.48 24.97 86.20 23.17Q87.93 21.37 89.23 19.35Q90.54 17.32 91.29 15.25Z" fill="#1a1a1a"/>
  <path d="M129.82 14.98L129.82 14.98L130.72 15.37Q130.33 16.24 129.90 17.16Q129.46 18.07 129.07 18.73L129.07 18.73L128.29 18.43Q128.71 17.71 129.15 16.71Q129.58 15.70 129.82 14.98ZM125.14 30.61L125.14 18.16L135.04 18.16L135.04 19.03L126.04 19.03L126.04 30.61L125.14 30.61ZM134.71 18.37L134.71 18.16L135.58 18.16Q135.58 18.16 135.58 18.37Q135.58 18.58 135.58 18.73L135.58 18.73Q135.46 21.67 135.34 23.41Q135.22 25.15 135.04 26.02Q134.86 26.89 134.59 27.22L134.59 27.22Q134.38 27.46 134.08 27.58Q133.78 27.70 133.27 27.70L133.27 27.70Q132.88 27.73 132.20 27.71Q131.53 27.70 130.78 27.64L130.78 27.64Q130.78 27.43 130.72 27.20Q130.66 26.98 130.57 26.80L130.57 26.80Q131.41 26.86 132.12 26.88Q132.82 26.89 133.12 26.89L133.12 26.89Q133.39 26.92 133.57 26.88Q133.75 26.83 133.87 26.65L133.87 26.65Q134.08 26.38 134.23 25.54Q134.38 24.70 134.50 22.98Q134.62 21.25 134.71 18.37L134.71 18.37ZM127.93 21.85L127.93 21.85L128.53 21.31Q129.49 21.88 130.50 22.64Q131.50 23.41 132.04 24.04L132.04 24.04L131.47 24.70Q130.90 24.07 129.90 23.26Q128.89 22.45 127.93 21.85ZM125.41 30.61L125.92 29.74L136.51 29.74L136.51 30.61L125.41 30.61ZM136.30 29.95L136.30 29.74L137.20 29.74Q137.20 29.74 137.19 29.84Q137.17 29.95 137.17 30.09Q137.17 30.22 137.14 30.31L137.14 30.31Q136.90 34.06 136.65 36.34Q136.39 38.62 136.07 39.77Q135.76 40.93 135.31 41.38L135.31 41.38Q135.01 41.68 134.65 41.81Q134.29 41.95 133.69 41.95L133.69 41.95Q133.21 41.95 132.24 41.94Q131.26 41.92 130.21 41.86L130.21 41.86Q130.18 41.65 130.12 41.40Q130.06 41.14 129.94 40.96L129.94 40.96Q131.14 41.08 132.15 41.09Q133.15 41.11 133.54 41.11L133.54 41.11Q133.90 41.14 134.16 41.08Q134.41 41.02 134.59 40.81L134.59 40.81Q134.95 40.45 135.25 39.31Q135.55 38.17 135.81 35.92Q136.06 33.67 136.30 29.95L136.30 29.95ZM124.27 36.01L124.27 35.11L134.20 35.11L134.20 36.01L124.27 36.01ZM116.71 17.14L116.71 17.14L117.37 16.54Q118.48 17.35 119.56 18.36Q120.64 19.36 121.54 20.35Q122.44 21.34 122.98 22.18L122.98 22.18L122.20 22.87Q121.69 22.03 120.81 21.01Q119.92 19.99 118.86 18.97Q117.79 17.95 116.71 17.14ZM117.28 15.07L117.28 15.07L118.21 15.31Q117.43 17.32 116.32 19.16Q115.21 21.01 113.91 22.60Q112.60 24.19 111.19 25.42L111.19 25.42Q111.13 25.33 111.00 25.18Q110.86 25.03 110.71 24.90Q110.56 24.76 110.44 24.67L110.44 24.67Q112.57 22.96 114.37 20.44Q116.17 17.92 117.28 15.07ZM112.99 25.60L112.99 24.61L121.09 24.61L121.09 25.60L112.99 25.60ZM112.99 30.16L112.99 29.26L121.75 29.26L121.75 39.34L112.99 39.34L112.99 38.47L120.85 38.47L120.85 30.16L112.99 30.16ZM112.57 41.17L112.57 29.26L113.44 29.26L113.44 41.17L112.57 41.17Z" fill="#b08d62"/>
  <line x1="72" y1="48" x2="138" y2="48" stroke="#b08d62" stroke-width="0.8" stroke-linecap="round" opacity="0.25"/>
</svg>